<svg width="800" height="600" viewBox="0 0 800 600" fill="none" xmlns="http://www.w3.org/2000/svg">
  <rect width="800" height="600" fill="#385d41"/>
  <rect x="50" y="50" width="700" height="500" rx="20" fill="#5d4f4d"/>
  <rect x="100" y="100" width="600" height="400" rx="10" fill="#7e976d"/>
  
  <!-- City skyline -->
  <rect x="150" y="250" width="80" height="200" fill="#222222"/>
  <rect x="160" y="270" width="15" height="15" fill="#9b7eda" opacity="0.8"/>
  <rect x="185" y="270" width="15" height="15" fill="#9b7eda" opacity="0.8"/>
  <rect x="160" y="295" width="15" height="15" fill="#9b7eda" opacity="0.8"/>
  <rect x="185" y="295" width="15" height="15" fill="#9b7eda" opacity="0.8"/>
  <rect x="160" y="320" width="15" height="15" fill="#9b7eda" opacity="0.8"/>
  <rect x="185" y="320" width="15" height="15" fill="#9b7eda" opacity="0.8"/>
  
  <rect x="240" y="200" width="100" height="250" fill="#222222"/>
  <rect x="255" y="220" width="15" height="15" fill="#df3131" opacity="0.8"/>
  <rect x="280" y="220" width="15" height="15" fill="#df3131" opacity="0.8"/>
  <rect x="305" y="220" width="15" height="15" fill="#df3131" opacity="0.8"/>
  <rect x="255" y="245" width="15" height="15" fill="#df3131" opacity="0.8"/>
  <rect x="280" y="245" width="15" height="15" fill="#df3131" opacity="0.8"/>
  <rect x="305" y="245" width="15" height="15" fill="#df3131" opacity="0.8"/>
  <rect x="255" y="270" width="15" height="15" fill="#df3131" opacity="0.8"/>
  <rect x="280" y="270" width="15" height="15" fill="#df3131" opacity="0.8"/>
  <rect x="305" y="270" width="15" height="15" fill="#df3131" opacity="0.8"/>
  
  <rect x="350" y="150" width="120" height="300" fill="#222222"/>
  <rect x="370" y="170" width="20" height="20" fill="#5b6ee1" opacity="0.8"/>
  <rect x="400" y="170" width="20" height="20" fill="#5b6ee1" opacity="0.8"/>
  <rect x="430" y="170" width="20" height="20" fill="#5b6ee1" opacity="0.8"/>
  <rect x="370" y="200" width="20" height="20" fill="#5b6ee1" opacity="0.8"/>
  <rect x="400" y="200" width="20" height="20" fill="#5b6ee1" opacity="0.8"/>
  <rect x="430" y="200" width="20" height="20" fill="#5b6ee1" opacity="0.8"/>
  <rect x="370" y="230" width="20" height="20" fill="#5b6ee1" opacity="0.8"/>
  <rect x="400" y="230" width="20" height="20" fill="#5b6ee1" opacity="0.8"/>
  <rect x="430" y="230" width="20" height="20" fill="#5b6ee1" opacity="0.8"/>
  
  <rect x="480" y="220" width="90" height="230" fill="#222222"/>
  <rect x="495" y="240" width="15" height="15" fill="#72c542" opacity="0.8"/>
  <rect x="520" y="240" width="15" height="15" fill="#72c542" opacity="0.8"/>
  <rect x="545" y="240" width="15" height="15" fill="#72c542" opacity="0.8"/>
  <rect x="495" y="265" width="15" height="15" fill="#72c542" opacity="0.8"/>
  <rect x="520" y="265" width="15" height="15" fill="#72c542" opacity="0.8"/>
  <rect x="545" y="265" width="15" height="15" fill="#72c542" opacity="0.8"/>
  
  <rect x="580" y="270" width="70" height="180" fill="#222222"/>
  <rect x="590" y="290" width="15" height="15" fill="#dfbe73" opacity="0.8"/>
  <rect x="615" y="290" width="15" height="15" fill="#dfbe73" opacity="0.8"/>
  <rect x="590" y="315" width="15" height="15" fill="#dfbe73" opacity="0.8"/>
  <rect x="615" y="315" width="15" height="15" fill="#dfbe73" opacity="0.8"/>
  
  <!-- Neon glow effects -->
  <circle cx="200" cy="200" r="30" fill="#df3131" opacity="0.3"/>
  <circle cx="500" cy="180" r="40" fill="#5b6ee1" opacity="0.3"/>
  <circle cx="350" cy="220" r="25" fill="#72c542" opacity="0.3"/>
  <circle cx="600" cy="250" r="35" fill="#9b7eda" opacity="0.3"/>
  
  <text x="400" y="500" font-family="Arial" font-size="40" fill="#ede6d2" text-anchor="middle">Neon City</text>
</svg> 