<svg width="800" height="600" viewBox="0 0 800 600" fill="none" xmlns="http://www.w3.org/2000/svg">
  <rect width="800" height="600" fill="#385d41"/>
  <rect x="50" y="50" width="700" height="500" rx="20" fill="#5d4f4d"/>
  <rect x="100" y="100" width="600" height="400" rx="10" fill="#7e976d"/>
  
  <!-- Pixel art canvas -->
  <rect x="250" y="150" width="300" height="300" fill="#ede6d2"/>
  
  <!-- Pixel art grid -->
  <g>
    <rect x="250" y="150" width="60" height="60" fill="#df3131"/>
    <rect x="310" y="150" width="60" height="60" fill="#5b6ee1"/>
    <rect x="370" y="150" width="60" height="60" fill="#72c542"/>
    <rect x="430" y="150" width="60" height="60" fill="#dfbe73"/>
    <rect x="490" y="150" width="60" height="60" fill="#9b7eda"/>
    
    <rect x="250" y="210" width="60" height="60" fill="#5b6ee1"/>
    <rect x="310" y="210" width="60" height="60" fill="#72c542"/>
    <rect x="370" y="210" width="60" height="60" fill="#dfbe73"/>
    <rect x="430" y="210" width="60" height="60" fill="#9b7eda"/>
    <rect x="490" y="210" width="60" height="60" fill="#df3131"/>
    
    <rect x="250" y="270" width="60" height="60" fill="#72c542"/>
    <rect x="310" y="270" width="60" height="60" fill="#dfbe73"/>
    <rect x="370" y="270" width="60" height="60" fill="#9b7eda"/>
    <rect x="430" y="270" width="60" height="60" fill="#df3131"/>
    <rect x="490" y="270" width="60" height="60" fill="#5b6ee1"/>
    
    <rect x="250" y="330" width="60" height="60" fill="#dfbe73"/>
    <rect x="310" y="330" width="60" height="60" fill="#9b7eda"/>
    <rect x="370" y="330" width="60" height="60" fill="#df3131"/>
    <rect x="430" y="330" width="60" height="60" fill="#5b6ee1"/>
    <rect x="490" y="330" width="60" height="60" fill="#72c542"/>
    
    <rect x="250" y="390" width="60" height="60" fill="#9b7eda"/>
    <rect x="310" y="390" width="60" height="60" fill="#df3131"/>
    <rect x="370" y="390" width="60" height="60" fill="#5b6ee1"/>
    <rect x="430" y="390" width="60" height="60" fill="#72c542"/>
    <rect x="490" y="390" width="60" height="60" fill="#dfbe73"/>
  </g>
  
  <text x="400" y="500" font-family="Arial" font-size="40" fill="#ede6d2" text-anchor="middle">Pixel Art Creator</text>
</svg> 