<svg width="800" height="600" viewBox="0 0 800 600" fill="none" xmlns="http://www.w3.org/2000/svg">
  <rect width="800" height="600" fill="#385d41"/>
  <rect x="50" y="50" width="700" height="500" rx="20" fill="#5d4f4d"/>
  <rect x="100" y="100" width="600" height="400" rx="10" fill="#7e976d"/>
  
  <!-- Music interface -->
  <rect x="200" y="150" width="400" height="300" rx="10" fill="#333333"/>
  
  <!-- Waveform -->
  <path d="M200 300 
           Q220 250, 240 300 
           Q260 350, 280 300 
           Q300 250, 320 300 
           Q340 350, 360 300 
           Q380 250, 400 300 
           Q420 350, 440 300 
           Q460 250, 480 300 
           Q500 350, 520 300 
           Q540 250, 560 300 
           Q580 350, 600 300" 
        stroke="#dfbe73" stroke-width="4" fill="none"/>
  
  <!-- Music controls -->
  <circle cx="300" cy="350" r="20" fill="#df3131"/>
  <circle cx="350" cy="350" r="20" fill="#5b6ee1"/>
  <circle cx="400" cy="350" r="20" fill="#72c542"/>
  <circle cx="450" cy="350" r="20" fill="#9b7eda"/>
  <circle cx="500" cy="350" r="20" fill="#dfbe73"/>
  
  <!-- Sliders -->
  <rect x="250" y="200" width="20" height="80" rx="5" fill="#444444"/>
  <rect x="300" y="200" width="20" height="80" rx="5" fill="#444444"/>
  <rect x="350" y="200" width="20" height="80" rx="5" fill="#444444"/>
  <rect x="400" y="200" width="20" height="80" rx="5" fill="#444444"/>
  <rect x="450" y="200" width="20" height="80" rx="5" fill="#444444"/>
  <rect x="500" y="200" width="20" height="80" rx="5" fill="#444444"/>
  
  <circle cx="260" cy="220" r="10" fill="#ede6d2"/>
  <circle cx="310" cy="240" r="10" fill="#ede6d2"/>
  <circle cx="360" cy="210" r="10" fill="#ede6d2"/>
  <circle cx="410" cy="260" r="10" fill="#ede6d2"/>
  <circle cx="460" cy="230" r="10" fill="#ede6d2"/>
  <circle cx="510" cy="250" r="10" fill="#ede6d2"/>
  
  <text x="400" y="450" font-family="Arial" font-size="40" fill="#ede6d2" text-anchor="middle">Urban Beats</text>
</svg> 